HIERARCHY
ROOT Hips
{
  OFFSET -331.093 83.8371 -317.828
  CHANNELS 6 Xposition Yposition Zposition Zrotation Xrotation Yrotation
  JOINT LeftUpLeg
  {
    OFFSET 8.64259 1.95398 -2.38835
    CHANNELS 3 Zrotation Xrotation Yrotation
    JOINT LeftLeg
    {
      OFFSET 43.7702 0 0
      CHANNELS 3 Zrotation Xrotation Yrotation
      JOINT LeftFoot
      {
        OFFSET 40.6238 0 0
        CHANNELS 3 Zrotation Xrotation Yrotation
        JOINT LeftToeBase
        {
          OFFSET 12.7242 0 0
          CHANNELS 3 Zrotation Xrotation Yrotation
          End Site
          {
            OFFSET 0 0 0
          }
        }
      }
    }
  }
  JOINT RightUpLeg
  {
    OFFSET -8.2249 1.95398 -2.59336
    CHANNELS 3 Zrotation Xrotation Yrotation
    JOINT RightLeg
    {
      OFFSET 43.5653 0 0
      CHANNELS 3 Zrotation Xrotation Yrotation
      JOINT RightFoot
      {
        OFFSET 40.6238 0 0
        CHANNELS 3 Zrotation Xrotation Yrotation
        JOINT RightToeBase
        {
          OFFSET 12.7242 0 0
          CHANNELS 3 Zrotation Xrotation Yrotation
          End Site
          {
            OFFSET 0 0 0
          }
        }
      }
    }
  }
  JOINT Spine
  {
    OFFSET 0.165834 0.87714 6.61349
    CHANNELS 3 Zrotation Xrotation Yrotation
    JOINT Spine1
    {
      OFFSET 7.38963 1.71661e-005 0
      CHANNELS 3 Zrotation Xrotation Yrotation
      JOINT Spine2
      {
        OFFSET 11.9445 1.14441e-005 0
        CHANNELS 3 Zrotation Xrotation Yrotation
        JOINT Spine3
        {
          OFFSET 14.7254 4.19617e-005 0
          CHANNELS 3 Zrotation Xrotation Yrotation
          JOINT Spine4
          {
            OFFSET 10.9679 0 0
            CHANNELS 3 Zrotation Xrotation Yrotation
            JOINT RightShoulder
            {
              OFFSET 2.46616 -1.6653 3.69651
              CHANNELS 3 Zrotation Xrotation Yrotation
              JOINT RightArm
              {
                OFFSET 13.0012 0 0
                CHANNELS 3 Zrotation Xrotation Yrotation
                JOINT RightForeArm
                {
                  OFFSET 28.7848 1.62311e-005 0
                  CHANNELS 3 Zrotation Xrotation Yrotation
                  JOINT RightHand
                  {
                    OFFSET 26.5688 1.62095e-005 0
                    CHANNELS 3 Zrotation Xrotation Yrotation
                    End Site
                    {
                      OFFSET 0 0 0
                    }
                  }
                }
              }
            }
            JOINT LeftShoulder
            {
              OFFSET 2.38034 -1.29275 -3.7523
              CHANNELS 3 Zrotation Xrotation Yrotation
              JOINT LeftArm
              {
                OFFSET 16.3182 6.07031e-005 0
                CHANNELS 3 Zrotation Xrotation Yrotation
                JOINT LeftForeArm
                {
                  OFFSET 27.0901 0 0
                  CHANNELS 3 Zrotation Xrotation Yrotation
                  JOINT LeftHand
                  {
                    OFFSET 24.5451 1.51738e-005 0
                    CHANNELS 3 Zrotation Xrotation Yrotation
                    End Site
                    {
                      OFFSET 0 0 0
                    }
                  }
                }
              }
            }
            JOINT Neck
            {
              OFFSET 5.0226 -0.0266342 0
              CHANNELS 3 Zrotation Xrotation Yrotation
              JOINT Head
              {
                OFFSET 6.69364 2.86102e-005 0
                CHANNELS 3 Zrotation Xrotation Yrotation
                End Site
                {
                  OFFSET 0 0 0
                }
              }
            }
          }
        }
      }
    }
  }
}
MOTION
Frames:	12
Frame Time:	0.0416667
-46.08 10.9484 9.6426 2.50159 -1.54077 77.7586 -176.858 9.19565 90.0976 -23.1739 31.0247 -0.504703 55.9862 -3.34523 -0.976088 82.0575 61.3344 15.5258 176.32 10.3182 87.6231 -31.0436 -18.7192 -6.99068 57.3624 2.64341 1.71211 51.9082 4.41726 14.5814 0.430189 6.55631 -90.6228 13.763 0.549876 -1.32097 2.09147 0.491234 -1.3439 -20.4406 0.921421 -1.09469 -0.427997 0.921432 -1.09468 98.274 -30.2948 -89.781 -50.8723 44.987 64.054 -14.5582 -10.1974 -140.804 -51.9773 -3.65488 2.85843 -91.5057 -41.7235 74.7891 52.4684 -30.3525 66.9242 6.7886 14.003 -148.573 56.9523 10.9052 14.8124 5.35754 -25.5548 2.94837 17.6288 -28.013 -17.6583 
-46.1012 10.999 9.64369 2.45208 -1.47278 77.7428 -176.54 9.29183 90.233 -23.0219 31.4274 -0.789157 55.9805 -3.23453 -0.581256 87.4429 61.2287 9.80247 176.435 10.4847 87.676 -31.2547 -18.8048 -7.0779 57.6196 2.54023 1.62863 51.7928 4.29883 14.2681 0.389095 6.59598 -90.6479 13.6829 0.456756 -1.35801 2.01129 0.396559 -1.37678 -20.5201 0.843746 -1.158 -0.507461 0.843754 -1.158 98.3104 -29.7434 -89.7829 -51.1193 46.2092 64.5896 -13.3897 -11.107 -140.531 -51.0388 -3.20205 1.99947 -91.4498 -42.4256 75.0787 52.1959 -29.9776 66.7431 6.52913 14.1437 -148.562 58.3598 11.3012 14.9506 3.58312 -25.6113 1.19537 20.6596 -28.0273 -16.8458 
-46.0918 11.0054 9.62935 2.50788 -1.41192 77.6316 -177.037 9.20159 89.8994 -23.1977 30.9744 -0.423025 56.2849 -3.02204 -0.638567 81.4585 59.7474 14.7154 176.293 10.4222 87.4838 -31.1781 -18.9202 -6.99843 57.6901 2.4628 1.58114 51.5082 4.33022 14.4657 0.418075 6.62494 -90.6697 13.6253 0.503958 -1.40748 1.95369 0.441557 -1.42832 -20.5776 0.903659 -1.19099 -0.56492 0.903654 -1.19099 98.6601 -29.4462 -89.1088 -53.486 47.2771 66.0893 -11.0573 -15.2178 -140.275 -49.1524 -2.98977 1.84762 -91.8838 -42.8987 74.5159 53.1576 -29.7878 66.7188 5.79677 15.4041 -147.522 56.3264 10.4031 14.1658 3.46096 -25.5666 1.5772 19.2578 -28.0127 -17.6057 
-46.1022 11.0278 9.65845 2.61908 -1.32623 77.611 -177.073 9.07734 89.8863 -23.092 31.0957 -0.388938 55.9833 -3.07423 -0.32278 88.0484 60.2605 8.31952 176.215 10.3781 87.479 -31.2793 -18.8253 -7.00924 57.631 2.54142 1.62484 51.8314 4.25038 14.1093 0.401538 6.66573 -90.6708 13.5435 0.471274 -1.40436 1.87181 0.40903 -1.42375 -20.6593 0.87153 -1.19784 -0.646656 0.871532 -1.19785 98.6095 -29.5936 -89.1961 -54.2802 47.6244 66.8487 -10.6536 -15.9276 -140.409 -49.2265 -3.04202 1.95778 -91.8743 -42.788 74.4977 52.9242 -29.7747 66.606 6.05531 15.216 -147.099 57.3295 10.5545 14.0642 2.68643 -25.7071 1.175 19.4641 -28.1674 -17.8791 
-46.0812 11.0186 9.67682 2.43923 -1.48994 77.6848 -176.937 9.2385 90.0037 -23.0831 31.0168 -0.479491 56.0352 -3.04258 -0.274582 89.1606 60.3047 7.22832 176.45 10.5233 87.6422 -31.2489 -18.6694 -7.07529 57.5756 2.53484 1.63031 51.5313 4.41263 14.7068 0.235232 6.56998 -90.5356 13.7336 0.205849 -1.10045 2.06223 0.157238 -1.10845 -20.4699 0.52705 -0.987732 -0.45725 0.52706 -0.987735 97.5338 -31.7743 -91.0432 -53.9351 46.7839 65.5413 -10.697 -15.4569 -140.265 -49.3492 -3.1508 2.20077 -89.7357 -41.6131 77.6437 51.651 -28.7446 66.0974 6.30792 14.2926 -147.399 58.2641 10.446 13.5489 1.10436 -24.9116 -0.185281 18.9406 -27.2661 -18.3778 
-46.0806 11.0327 9.66708 2.5916 -1.28885 77.719 -177.061 9.12443 89.9988 -23.1465 31.1115 -0.355422 56.119 -3.03779 -0.438522 85.2739 59.8847 10.8349 176.303 10.3462 87.6152 -31.1515 -18.7012 -6.99407 57.5326 2.56003 1.64635 51.5113 4.43425 14.7802 0.0211507 6.49153 -90.3984 13.8897 -0.152383 -0.778659 2.21857 -0.186497 -0.771193 -20.3147 0.0886712 -0.788451 -0.302088 0.0886797 -0.788429 96.2732 -34.5126 -93.0251 -55.3515 45.9255 65.1258 -10.4031 -15.8956 -139.957 -48.9768 -3.13157 2.22539 -87.8514 -40.5749 80.5071 50.0218 -27.5985 65.4742 6.56628 13.0812 -148.313 56.5912 11.0154 15.142 -0.174717 -24.0176 -0.769889 18.0138 -26.4285 -19.4666 
-46.0678 11.0157 9.6945 2.5105 -1.47288 77.8138 -176.921 9.28603 90.1349 -23.3248 31.1278 -0.430666 55.9079 -3.16196 -0.313367 88.2139 59.1937 7.19701 176.427 10.3592 87.7299 -31.0777 -18.8009 -7.01817 57.4263 2.58747 1.67446 51.6489 4.39675 14.6158 -0.098428 6.37091 -90.2629 14.131 -0.323741 -0.482825 2.46001 -0.344688 -0.468124 -20.0745 -0.163674 -0.557802 -0.0618731 -0.163665 -0.557814 94.9869 -36.9068 -94.965 -55.677 44.3834 64.3179 -10.22 -15.46 -139.751 -49.0432 -3.1438 2.2509 -86.4599 -38.8542 82.4872 48.5834 -26.2221 65.1413 6.75917 12.262 -148.311 57.7624 10.7613 14.2607 -2.73194 -23.3 -2.1709 18.6203 -25.7835 -19.6913 
-46.0553 11.0186 9.68833 2.53896 -1.43517 77.8124 -176.929 9.25548 90.1177 -23.2569 31.1517 -0.423207 55.8799 -3.12968 -0.225291 88.5579 58.8892 6.56466 176.45 10.3752 87.7473 -31.1938 -18.8573 -7.0724 57.4957 2.5824 1.66296 51.25 4.26998 14.3772 -0.229082 6.29521 -90.1656 14.2829 -0.535081 -0.258002 2.61202 -0.545927 -0.234213 -19.9236 -0.432801 -0.406886 0.0891105 -0.432816 -0.406914 93.844 -38.3747 -96.7159 -54.4176 42.982 62.6366 -11.2142 -12.8283 -139.571 -49.8838 -3.17534 2.18179 -85.4876 -38.0873 84.0101 47.7343 -25.3118 64.8387 6.72481 11.8156 -148.543 57.9515 10.793 14.245 -3.7783 -22.8004 -2.44937 18.1334 -25.3392 -20.2377 
-46.0815 11.0535 9.67913 2.43197 -1.34118 77.7586 -176.995 9.43566 90.0632 -23.3379 31.0395 -0.408118 56.1558 -3.04739 -0.479858 86.482 60.1399 9.80682 176.46 10.4921 87.6811 -31.1387 -18.7249 -7.04211 57.4611 2.57327 1.66433 51.836 4.45098 14.709 -0.340081 6.25168 -90.0613 14.3707 -0.703665 -0.0243191 2.69998 -0.704075 0.0066692 -19.8366 -0.663834 -0.234689 0.176054 -0.663825 -0.234678 93.3108 -40.306 -97.2324 -53.742 42.6955 60.7582 -10.4696 -12.7124 -138.902 -50.5665 -3.2059 2.15754 -84.5114 -37.1517 85.5451 46.879 -24.8134 64.485 6.53468 11.564 -148.943 55.7004 10.7318 14.9936 -4.66665 -22.325 -3.94531 18.6812 -24.7513 -19.6254 
-46.0655 11.0187 9.67072 2.42872 -1.32068 77.689 -177.048 9.21352 89.9724 -23.0037 31.015 -0.398817 55.9169 -3.11788 -0.325839 88.1759 59.2393 7.26883 176.429 10.5788 87.633 -31.3262 -18.74 -7.10005 57.4513 2.63459 1.6944 52.09 4.43126 14.5564 -0.419168 6.22602 -89.9882 14.4227 -0.824219 0.139953 2.75205 -0.817285 0.176059 -19.7852 -0.828183 -0.114279 0.227467 -0.828198 -0.114272 92.619 -41.4007 -98.1764 -54.3712 42.6563 60.5674 -10.5121 -12.7362 -138.828 -49.2153 -3.0438 1.99418 -83.8596 -36.6082 86.6053 46.5231 -24.5788 64.2768 6.66147 11.2571 -148.895 58.0834 10.7445 14.1142 -4.88167 -21.9303 -4.5274 18.4331 -24.2604 -19.4413 
-46.027 10.9946 9.67283 2.34567 -1.37418 77.7597 -177.051 9.36231 90.0174 -23.2682 30.9994 -0.374518 56.1852 -2.9382 -0.240328 84.4503 58.1056 10.0518 176.46 10.5765 87.6752 -31.1533 -18.6995 -7.04098 57.213 2.7088 1.76237 52.3131 4.42191 14.4496 -0.474459 6.19533 -89.9512 14.4847 -0.915366 0.227751 2.81408 -0.904488 0.267828 -19.7237 -0.941524 -0.057908 0.28898 -0.94152 -0.057909 91.9611 -42.653 -98.9972 -54.7191 42.459 59.8326 -10.4949 -12.5325 -138.455 -49.6224 -3.02917 1.89936 -83.4441 -36.29 87.2939 45.9159 -24.2576 64.0336 6.33697 11.3791 -148.927 57.6746 10.818 14.3892 -5.72803 -21.6257 -4.53552 18.4528 -24.096 -19.8977 
-46.0145 10.9846 9.66505 2.37125 -1.41079 77.6993 -177.101 9.19982 89.948 -23.2368 30.7019 -0.342015 56.3909 -2.81547 -0.282524 85.0262 57.4069 8.80721 176.449 10.5325 87.6071 -31.1651 -18.7631 -7.05977 57.2714 2.66688 1.73455 52.6855 4.36121 14.1375 -0.509359 6.18239 -89.9205 14.5109 -0.969357 0.297492 2.84028 -0.955336 0.339855 -19.6978 -1.01396 -0.00762597 0.314872 -1.01394 -0.00763684 91.3553 -43.4865 -99.8059 -55.2146 42.2012 59.675 -10.5059 -12.298 -138.3 -50.1907 -3.20077 2.20594 -83.334 -36.084 87.4603 46.7015 -24.3057 64.5319 6.80121 11.1002 -149.018 57.2235 10.861 14.6334 -6.24085 -21.2381 -4.25776 18.6796 -23.8286 -19.9887 
